<?xml version="1.0" encoding="UTF-8"?>
<svg id="Layer_2" xmlns="http://www.w3.org/2000/svg" viewBox="0 0 259.05 111.56">
  <defs>
    <style>
      .cls-1 {
        fill: #dd6c26;
      }
    </style>
  </defs>
  <g id="Layer_1-2" data-name="Layer_1">
    <g>
      <g>
        <g>
          <path class="cls-1" d="M82.61,86.23c-.59,0-1.24.32-1.81.43-1.16.23-2.34.3-3.5.1-2.37-.4-4.41-2.06-5.66-4.05-1.5-2.37-2.06-5.2-2.4-7.98-.66-5.47-.53-11.03.39-16.46.48-2.78,1.37-5.66,2.41-8.26.97-2.42,2.76-4.53,5.03-5.82,1.87-1.07,4.07-1.63,5.69-3.06,3.71-3.26,1.83-8.42.06-12.17-1.66-3.5-4.1-6.63-7.34-8.8-.53-.36-1.07-.71-1.65-.99-4.03-2.16-8.67-2.91-13.21-2.91h-25.99c-8,0-8,5.33-8,10.66v73.31c0,5.33,0,10.66,5.34,10.66h9.32c8,0,8-5.33,8-10.66v-18.93c0-1.06,0-3.2,1.07-3.2.8,0,4.8,2.14,8,14.53,2.53,9.86,8.79,18.93,21.05,18.93,6.94,0,8-2.4,8-5.07,0-4,.13-7.59.13-10.53,0-6.13-.66-9.73-4.93-9.73ZM75.46,22.38c1.45.09,2.54,1.47,2.43,3.09-.1,1.62-1.36,2.86-2.81,2.77-1.44-.1-2.54-1.49-2.44-3.11.11-1.61,1.37-2.84,2.82-2.75ZM55.29,59.44c-5.33,0-6.13-.8-6.13-5.19,0-1.6.13-4,.13-6.67s-.13-5.86-.13-7.6c0-4.79.8-5.73,6.13-5.73,6,0,7.33,7.33,7.33,13.33s-1.33,11.86-7.33,11.86ZM66.09,25.71c-.54-1.53.13-3.15,1.5-3.64,1.37-.49,2.92.36,3.46,1.89.54,1.52-.13,3.16-1.51,3.64-1.36.48-2.92-.37-3.45-1.89Z"/>
          <path class="cls-1" d="M142.55,106.05c0,4.6-3.1,5-8.8,5h-5.3c-6.2,0-3.1-15-7.1-15h-8c-4,0-1.7,15-7.7,15h-4.7c-5.2,0-8.3-.4-8.3-5,0-6,2.4-11.3,10.2-58,.8-5,2.8-8,6.8-8h15.4c4,0,6,3,7,8,6.8,41,10.5,52,10.5,58ZM113.45,79.45c0,1.6.7,1.6,3.9,1.6s3.9,0,3.9-1.5c0-.4,0-.9-.1-1.6-1.2-9.8-1.6-21.9-3.8-21.9s-2.8,12-3.8,21.9c-.1.6-.1,1.1-.1,1.5Z"/>
          <path class="cls-1" d="M163.75,103.75c-.2,3.8-.4,7.3-6,7.3h-5c-6,0-6-4-6-8v-45.7c0-2.5-.5-3.1-2.6-3.1-.7,0-1.7.1-2.9.1-2.5,0-4.5-.4-4.5-2.8v-8.5c0-2,2.2-3,4.7-3h27.6c2.5,0,4.7,1,4.7,3v8.5c0,2.4-2,2.8-4.5,2.8-.7,0-1.6-.1-2.8-.1-2.5,0-2.7.6-2.7,3.1v46.4Z"/>
          <path class="cls-1" d="M197.55,39.55c21.5,0,21.5,15.9,21.5,36s0,36-21.5,36-21.5-15.9-21.5-36,0-36,21.5-36ZM193.05,63.35v25.1c0,4.7.3,9.1,4.5,9.1s4.9-5.1,4.9-12.4c0-2.9-.1-6.2-.1-9.6s.1-6.4.1-9.1c0-7.2-.6-11.9-4.9-11.9s-4.5,3.9-4.5,8.8Z"/>
          <path class="cls-1" d="M243.05,39.55c8.3,0,13.9,1.5,13.9,4.3v7.7c0,1.1-.4,3-3.8,3h-.8c-1.6,0-5.2-1.1-8.1-1.1-2.4,0-4.3.8-4.3,4s.9,4.7,4.8,7.9c11.9,9.8,14.3,16.8,14.3,24.9,0,4.6-.1,8.8-2.7,12.7-3.3,5-8.5,6.9-10.7,7.5-2.7.7-6.5,1.1-9.6,1.1-7.4,0-14.6-1.4-14.6-5.4v-7.7c0-1.2,1-2.4,3.7-2.4s4.8,1.5,10.5,1.5c2.8,0,6.6-2.2,6.6-5.3,0-2.3-.1-4-6.2-10-9.3-9.1-13.7-13.3-13.7-21.5,0-19.7,12.7-21.2,20.7-21.2Z"/>
        </g>
        <g>
          <circle class="cls-1" cx="23.21" cy="18.43" r="14.53"/>
          <circle class="cls-1" cx="56.07" cy="11.93" r="11.93"/>
          <path class="cls-1" d="M98.84,21.83l-19.18,9.27c-.52.25-.77.96-.56,1.59l.25.75c.21.62.8.93,1.31.68l19.18-9.27c.69-.33,1.02-1.28.75-2.11h0c-.27-.83-1.06-1.24-1.75-.91Z"/>
          <path class="cls-1" d="M107.62,28.33l-24.44,1.73c-.87.06-1.54.98-1.49,2.03l.02.35c.05,1.06.81,1.87,1.68,1.81l24.44-1.73c.87-.06,1.54-.98,1.49-2.03l-.02-.35c-.05-1.06-.81-1.87-1.68-1.81Z"/>
        </g>
      </g>
      <path class="cls-1" d="M76.96,46.01l.68,5.15c.06.45.65.69,1.2.49l1.39-.5c.42-.15.66-.51.56-.84l-1.42-5.06c-.13-.48-.88-.65-1.4-.31l-.66.42c-.26.16-.4.41-.37.66Z"/>
      <path class="cls-1" d="M82.18,43.77l2.69,4.6c.23.4-.1.9-.68,1.01l-1.47.29c-.44.09-.86-.09-.99-.41l-2.03-4.89c-.19-.46.32-.98.96-.97h.8c.32.02.59.15.72.37Z"/>
      <path class="cls-1" d="M31.13,85.68l-.78,20.4S8.33,92.12.02,32.55c-.21-1.47,1.11-2.16,1.47-.77,5.47,20.73,17.68,60.38,29.63,53.9Z"/>
    </g>
  </g>
</svg>